<?xml version="1.0" encoding="UTF-8" standalone="no"?>
<!DOCTYPE svg PUBLIC "-//W3C//DTD SVG 1.1//EN" "http://www.w3.org/Graphics/SVG/1.1/DTD/svg11.dtd">
<svg version="1.1" xmlns="http://www.w3.org/2000/svg" xmlns:xlink="http://www.w3.org/1999/xlink" preserveAspectRatio="xMidYMid meet" viewBox="0 0 640 640" width="500" height="500"><defs><path d="M600 189.75C600 195.87 595.36 201 589.27 201.62C491.41 211.51 209.07 240.06 111.33 249.95C105.27 250.56 100 245.8 100 239.7C100 201.53 100 99.01 100 60.99C100 54.49 105.61 49.41 112.08 50.07C209.66 59.94 491.75 88.46 589.69 98.37C595.55 98.96 600 103.89 600 109.77C600 127.92 600 171.68 600 189.75Z" id="b3h9pkLTf7"></path><path d="M50 120C55.52 120 60 124.48 60 130C60 224 60 496 60 590C60 595.52 55.52 600 50 600C48 600 52 600 50 600C44.48 600 40 595.52 40 590C40 496 40 224 40 130C40 124.48 44.48 120 50 120C52 120 48 120 50 120Z" id="a2mpLMFurY"></path><path d="M100 240L100 60L60 150L100 240Z" id="drMJ4PHEr"></path><path d="M300 70L300 230L200 240L200 60L300 70Z" id="a7o2nGJx5"></path><path d="M500 90L500 210L400 220L400 80L500 90Z" id="bjxwdvas"></path></defs><g><g><g><g><use xlink:href="#b3h9pkLTf7" opacity="1" fill-opacity="0" stroke="#ffffff" stroke-width="10" stroke-opacity="1"></use></g></g><g><use xlink:href="#a2mpLMFurY" opacity="1" fill="#ffffff" fill-opacity="1"></use></g><g><g><use xlink:href="#drMJ4PHEr" opacity="1" fill-opacity="0" stroke="#ffffff" stroke-width="6" stroke-opacity="1"></use></g></g><g><use xlink:href="#a7o2nGJx5" opacity="1" fill="#ffffff" fill-opacity="1"></use></g><g><use xlink:href="#bjxwdvas" opacity="1" fill="#ffffff" fill-opacity="1"></use></g></g></g></svg>